<?xml version="1.0" encoding="utf-8"?>
<!-- Generator: Adobe Illustrator 16.0.0, SVG Export Plug-In . SVG Version: 6.00 Build 0)  -->
<!DOCTYPE svg PUBLIC "-//W3C//DTD SVG 1.1//EN" "http://www.w3.org/Graphics/SVG/1.1/DTD/svg11.dtd">
<svg version="1.1" id="Layer_1" xmlns="http://www.w3.org/2000/svg" xmlns:xlink="http://www.w3.org/1999/xlink" x="0px" y="0px"
	 width="125px" height="125px" viewBox="0 0 125 125" enable-background="new 0 0 125 125" xml:space="preserve">
<path fill="#8378FF" d="M-75,93c0,17.673-14.327,32-32,32h-61c-17.673,0-32-14.327-32-32V32c0-17.673,14.327-32,32-32h61
	c17.673,0,32,14.327,32,32V93z"/>
<path d="M-290.131-184.604c-5.322,12.459-20.926,17.056-33.021,17.056c-2.419,0-6.411-0.121-12.096-1.331
	c-17.539-3.749-22.135-15.361-24.675-21.893l12.337-2.299c0.847,1.814,3.508,7.741,8.709,11.128
	c5.685,3.629,12.701,3.629,14.636,3.629c2.177,0,10.765-0.121,16.813-3.87c0.847-0.605,3.75-2.661,5.443-6.169
	c1.21-2.661,1.693-4.959,1.693-10.645V-255h12.096v56.366C-288.196-196.94-287.833-190.167-290.131-184.604z"/>
<path d="M-268.484-238.55v-11.611h11.37v11.611H-268.484z M-268.363-169.604v-59.026h11.491v59.026H-268.363z"/>
<path d="M-180.308-169.604v-31.207c0-5.08-0.484-7.257-1.572-9.676c-2.177-5.081-8.225-10.04-20.321-10.04
	c-5.806,0-9.072,1.089-11.491,1.936c-1.814,0.726-8.588,3.145-11.37,10.523c-1.331,3.387-1.452,6.773-1.452,10.402v28.062h-11.491
	v-59.026h11.491v7.136c2.057-1.693,4.233-3.749,8.951-5.685c3.507-1.451,9.192-3.145,17.417-3.145
	c14.636,0,25.401,5.927,29.271,14.756c1.935,4.597,1.935,9.193,1.935,14.031v31.933H-180.308z"/>
<path d="M-142.091-197.787c0.847,5.685,1.936,9.556,6.169,13.547c2.903,2.782,9.435,7.258,19.716,7.258
	c7.016,0,14.031-2.178,18.869-7.379c1.693-1.814,2.419-3.266,3.629-5.443l11.007,3.024c-0.847,1.814-1.814,3.629-3.024,5.322
	c-3.75,5.442-9.797,8.588-11.612,9.435c-3.266,1.572-10.644,4.233-20.441,4.233c-19.111,0-36.045-10.645-36.166-31.812
	c0-1.814,0.242-6.169,2.056-11.007c5.927-15.604,21.651-18.628,26.489-19.354c1.331-0.242,3.992-0.604,7.378-0.604
	c5.08,0,19.837,0.726,29.634,13.185c1.814,2.298,5.685,7.378,6.653,15.119c0.242,1.572,0.242,3.023,0.242,4.476H-142.091z
	 M-103.143-218.108c-0.968-0.604-3.145-1.935-6.29-2.902c-1.572-0.484-3.992-0.968-7.862-0.968c-8.951,0-17.176,3.266-22.135,11.128
	c-0.968,1.451-1.209,1.814-2.298,4.476h47.294C-96.974-213.391-100.24-216.173-103.143-218.108z"/>
<path d="M-2.875-179.281c-7.137,12.7-30.239,11.854-30.723,11.854c-3.992,0-26.61,0-40.279-12.337l9.919-6.532
	c0.604,0.484,3.387,2.661,6.048,4.113c9.313,4.838,20.926,5.08,23.707,5.08c0.242,0,10.887,0,16.329-2.903
	c2.54-1.33,4.718-3.629,4.718-6.652c0-1.572-0.604-3.871-3.75-5.443c-5.201-2.782-16.329-2.419-30.723-3.991
	c-5.08-0.604-10.766-1.572-15.119-4.718c-3.629-2.661-5.564-6.773-5.564-11.369c0-6.532,3.75-11.612,9.435-14.516
	c8.225-4.233,22.135-4.233,23.345-4.233c9.192,0,18.869,1.572,27.094,5.927c3.992,2.178,5.807,3.629,7.258,5.08l-10.039,5.564
	c-9.677-6.652-21.53-6.895-25.159-6.895c-8.346,0-13.547,1.21-16.692,3.508c-2.177,1.693-2.54,3.266-2.54,4.597
	c0,1.088,0.484,3.266,2.903,4.596c4.112,2.419,15.24,2.782,27.699,3.871c9.071,0.726,13.426,1.693,17.176,4.112
	c4.596,3.023,6.895,7.862,6.895,13.185C-0.939-186.055-1.061-182.547-2.875-179.281z"/>
<path d="M71.509-169.604v-30.239c0-3.87-0.121-7.499-1.572-11.007c-3.266-7.378-12.338-9.919-19.716-9.919
	c-2.419,0-10.039,0.242-16.692,4.597c-2.056,1.331-3.991,3.024-5.685,4.959c-0.968,1.21-1.572,2.057-2.419,3.387v38.223H13.934V-255
	h11.612v32.779c1.088-0.847,2.177-1.693,3.387-2.419c3.991-2.54,11.37-5.806,23.103-5.806c17.78,0,26.126,8.467,29.029,15.604
	c1.814,4.233,1.936,8.346,1.936,12.942v32.295H71.509z"/>
<path d="M-272.549-45.316c-7.257,11.007-21.167,11.128-32.658,11.128H-360v-85.396h54.793c2.178,0,4.233,0,6.411,0.121
	c7.741,0.484,15.845,2.298,21.046,8.467c3.267,3.992,4.597,8.588,4.597,13.548c0,9.555-5.201,14.151-8.467,15.966
	c-0.968,0.604-3.508,1.572-3.508,1.572c2.177,0.726,6.169,1.936,10.16,6.048c2.419,2.419,6.048,7.258,6.048,15.846
	C-268.92-55.719-269.041-50.639-272.549-45.316z M-291.418-107.125c-4.233-2.661-9.192-2.661-13.91-2.661h-42.455v26.247h44.633
	c5.563,0,11.491-0.12,15.119-5.321c0.847-1.21,2.299-3.871,2.299-7.741C-285.732-98.779-286.217-103.859-291.418-107.125z
	 M-284.039-67.451c-4.112-5.927-11.007-6.29-17.539-6.29h-46.205v29.635h46.205c6.29,0,12.821-0.605,17.176-6.048
	c1.089-1.452,2.903-4.354,2.782-8.951C-281.62-60.557-281.62-64.064-284.039-67.451z"/>
<path d="M-195.021-34.188v-30.239c0-3.87-0.121-7.499-1.572-11.007c-3.266-7.378-12.338-9.919-19.715-9.919
	c-2.42,0-10.039,0.242-16.693,4.597c-2.056,1.331-3.991,3.024-5.685,4.959c-0.968,1.21-1.572,2.057-2.419,3.387v38.223h-11.491
	v-85.396h11.612v32.779c1.088-0.847,2.177-1.693,3.387-2.419c3.991-2.54,11.371-5.806,23.103-5.806
	c17.779,0,26.125,8.467,29.029,15.604c1.814,4.233,1.936,8.346,1.936,12.942v32.295H-195.021z"/>
<path d="M-101.524-33.584c-10.039,0-10.887-5.685-11.371-10.039c-0.361,0.604-1.33,2.177-2.781,3.508
	c-3.992,3.87-12.217,8.104-25.401,8.104c-3.629,0-7.258-0.483-8.346-0.604c-5.928-0.968-10.887-2.902-15-7.499
	c-3.023-3.508-4.596-7.62-4.596-12.217c0-10.16,7.258-14.515,10.402-15.845c5.686-2.541,14.877-2.661,28.787-2.782l16.813-0.121
	c0-5.201,0.242-10.281-5.201-13.185c-2.539-1.33-7.377-2.419-14.393-2.419c-5.564,0-13.547,0.483-18.266,4.233
	c-1.088,0.847-1.451,1.331-2.66,3.508l-11.611-1.089c0.121-0.483,1.209-3.628,2.66-5.806c1.09-1.572,3.266-4.233,7.621-6.048
	c3.871-1.572,11.248-3.145,21.65-3.145c1.693,0,10.04,0.121,16.813,1.814c1.574,0.362,7.742,1.693,11.25,6.41
	c2.902,3.871,2.902,7.862,2.902,12.338v21.53c0,3.749,0,6.048,0.484,7.62c0.605,1.814,2.057,3.508,6.168,3.508
	c1.09,0,2.057-0.121,4.234-0.363v7.983C-94.751-33.946-98.138-33.584-101.524-33.584z M-134.546-62.13
	c-8.951,0-14.273,0.242-18.023,2.057c-1.33,0.604-4.959,2.903-4.959,7.62c0,5.806,5.322,11.612,17.055,11.612
	c3.146,0,6.895-0.605,7.621-0.726c2.42-0.363,13.063-2.178,17.782-10.887c2.176-4.112,2.055-7.982,2.176-9.677H-134.546z"/>
<path d="M-17.345-43.865c-7.137,12.7-30.238,11.854-30.723,11.854c-3.992,0-26.609,0-40.279-12.337l9.92-6.532
	c0.604,0.484,3.387,2.661,6.047,4.113c9.314,4.838,20.926,5.08,23.707,5.08c0.242,0,10.887,0,16.33-2.903
	c2.539-1.33,4.717-3.629,4.717-6.652c0-1.572-0.604-3.871-3.75-5.443c-5.201-2.782-16.328-2.419-30.723-3.991
	c-5.08-0.604-10.766-1.572-15.119-4.718c-3.629-2.661-5.564-6.773-5.564-11.369c0-6.532,3.75-11.612,9.436-14.516
	c8.225-4.233,22.135-4.233,23.344-4.233c9.193,0,18.869,1.572,27.094,5.927c3.992,2.178,5.807,3.629,7.258,5.08l-10.039,5.564
	c-9.676-6.652-21.529-6.895-25.158-6.895c-8.346,0-13.547,1.21-16.693,3.508c-2.176,1.693-2.539,3.266-2.539,4.597
	c0,1.088,0.484,3.266,2.902,4.596c4.113,2.419,15.24,2.782,27.699,3.871c9.072,0.726,13.426,1.693,17.176,4.112
	c4.596,3.023,6.895,7.862,6.895,13.185C-15.409-50.639-15.53-47.131-17.345-43.865z"/>
<path d="M58.491-34.188L27.526-62.734L11.317-50.275v16.087H-0.415v-85.396h11.732v56.971l37.135-30.602h17.781L36.599-69.991
	l38.826,35.803H58.491z"/>
<path d="M145.575-33.584c-10.039,0-10.885-5.685-11.369-10.039c-0.363,0.604-1.33,2.177-2.783,3.508
	c-3.99,3.87-12.215,8.104-25.4,8.104c-3.629,0-7.258-0.483-8.346-0.604c-5.926-0.968-10.887-2.902-14.998-7.499
	c-3.023-3.508-4.596-7.62-4.596-12.217c0-10.16,7.256-14.515,10.4-15.845c5.686-2.541,14.879-2.661,28.789-2.782l16.813-0.121
	c0-5.201,0.242-10.281-5.201-13.185c-2.541-1.33-7.379-2.419-14.395-2.419c-5.563,0-13.547,0.483-18.264,4.233
	c-1.088,0.847-1.451,1.331-2.66,3.508l-11.613-1.089c0.121-0.483,1.211-3.628,2.662-5.806c1.088-1.572,3.266-4.233,7.619-6.048
	c3.871-1.572,11.25-3.145,21.652-3.145c1.693,0,10.039,0.121,16.813,1.814c1.572,0.362,7.74,1.693,11.248,6.41
	c2.904,3.871,2.904,7.862,2.904,12.338v21.53c0,3.749,0,6.048,0.482,7.62c0.605,1.814,2.057,3.508,6.17,3.508
	c1.088,0,2.057-0.121,4.232-0.363v7.983C152.349-33.946,148.962-33.584,145.575-33.584z M112.554-62.13
	c-8.949,0-14.271,0.242-18.021,2.057c-1.33,0.604-4.959,2.903-4.959,7.62c0,5.806,5.322,11.612,17.055,11.612
	c3.145,0,6.895-0.605,7.619-0.726c2.42-0.363,13.064-2.178,17.781-10.887c2.178-4.112,2.057-7.982,2.178-9.677H112.554z"/>
<path d="M197.944-84.022c-2.057,0-15.604-0.363-19.473,10.281c-0.848,2.54-0.969,4.959-0.969,7.62v31.933h-11.49v-59.026h11.369
	l0.121,6.652c0.848-0.847,1.451-1.572,3.266-2.782c3.023-2.056,10.039-5.563,19.475-5.563c3.387,0,5.322,0.604,6.773,0.967v11.249
	C204.839-83.297,202.542-84.022,197.944-84.022z"/>
<path d="M279.224-33.584c-10.039,0-10.885-5.685-11.369-10.039c-0.363,0.604-1.33,2.177-2.783,3.508
	c-3.99,3.87-12.215,8.104-25.4,8.104c-3.629,0-7.258-0.483-8.346-0.604c-5.926-0.968-10.887-2.902-14.998-7.499
	c-3.023-3.508-4.596-7.62-4.596-12.217c0-10.16,7.256-14.515,10.4-15.845c5.686-2.541,14.879-2.661,28.789-2.782l16.813-0.121
	c0-5.201,0.242-10.281-5.201-13.185c-2.541-1.33-7.379-2.419-14.395-2.419c-5.563,0-13.547,0.483-18.264,4.233
	c-1.088,0.847-1.451,1.331-2.66,3.508l-11.613-1.089c0.121-0.483,1.211-3.628,2.662-5.806c1.088-1.572,3.266-4.233,7.619-6.048
	c3.871-1.572,11.25-3.145,21.652-3.145c1.693,0,10.039,0.121,16.813,1.814c1.572,0.362,7.74,1.693,11.248,6.41
	c2.904,3.871,2.904,7.862,2.904,12.338v21.53c0,3.749,0,6.048,0.482,7.62c0.605,1.814,2.057,3.508,6.17,3.508
	c1.088,0,2.057-0.121,4.232-0.363v7.983C285.997-33.946,282.61-33.584,279.224-33.584z M246.202-62.13
	c-8.949,0-14.271,0.242-18.021,2.057c-1.33,0.604-4.959,2.903-4.959,7.62c0,5.806,5.322,11.612,17.055,11.612
	c3.145,0,6.895-0.605,7.619-0.726c2.42-0.363,13.064-2.178,17.781-10.887c2.178-4.112,2.057-7.982,2.178-9.677H246.202z"/>
<path d="M357.358-34.188v-31.207c0-5.08-0.484-7.257-1.572-9.676c-2.178-5.081-8.227-10.04-20.322-10.04
	c-5.805,0-9.07,1.089-11.49,1.936c-1.814,0.726-8.588,3.145-11.369,10.523c-1.33,3.387-1.451,6.773-1.451,10.402v28.062h-11.492
	v-59.026h11.492v7.136c2.055-1.693,4.232-3.749,8.949-5.685c3.508-1.451,9.193-3.145,17.418-3.145
	c14.637,0,25.4,5.927,29.271,14.756c1.936,4.597,1.936,9.193,1.936,14.031v31.933H357.358z"/>
<g>
	<path fill="#FFFFFF" d="M-161.724,83.098c-3.781,3.64-8.961,3.99-13.862,3.99h-10.151V75.396h4.061c1.61,0,3.64,0.07,4.9-1.26
		c1.05-1.051,1.19-2.45,1.19-3.851V37.662h17.782v33.884C-157.804,73.227-157.524,79.037-161.724,83.098z"/>
	<path fill="#FFFFFF" d="M-92.211,81.137c-4.55,5.461-12.531,5.951-18.832,5.951h-38.014V37.662h41.514
		c4.971,0,11.061,0.351,14.001,5.181c0.7,1.12,1.68,3.221,1.68,6.371c0,1.12-0.07,4.271-2.1,6.86c-1.12,1.4-3.36,3.291-7.351,4.271
		c3.08,0.49,5.88,0.98,8.331,3.08c2.94,2.45,3.641,5.461,3.641,9.102C-89.34,74.066-89.411,77.707-92.211,81.137z M-111.393,67.206
		h-19.952v8.61h18.622c0.14,0,1.54,0,2.45-0.21c2.24-0.49,3.36-2.101,3.36-4.341C-106.912,67.275-110.203,67.206-111.393,67.206z
		 M-109.362,50.544c-0.91-1.54-2.59-1.75-4.201-1.75h-17.642v7.7h16.382c1.82,0,4.411,0.141,5.531-1.89
		c0.28-0.561,0.49-1.33,0.49-1.96C-108.803,52.294-108.803,51.454-109.362,50.544z"/>
</g>
<g>
	<path fill="#8378FF" d="M88.607,67H69v9h18.277c0.14,0,1.54-0.092,2.45-0.302c2.24-0.49,3.36-2.25,3.36-4.49
		C93.088,67.218,89.797,67,88.607,67z"/>
	<path fill="#8378FF" d="M90.708,54.357c0.28-0.561,0.49-1.207,0.49-1.836c0-0.351,0-1.026-0.56-1.936
		c-0.91-1.54-2.59-1.585-4.201-1.585H69v7h16.177C86.997,56,89.587,56.388,90.708,54.357z"/>
	<path fill="#8378FF" d="M93,0H32C14.327,0,0,14.327,0,32v61c0,17.673,14.327,32,32,32h61c17.673,0,32-14.327,32-32V32
		C125,14.327,110.673,0,93,0z M38.178,83.054C34.397,86.693,29.315,87,24.414,87H14V75h4.324c1.61,0,3.433,0.269,4.693-1.062
		C24.067,72.888,24,71.687,24,70.286V38h18v33.546C42,73.227,42.378,78.993,38.178,83.054z M107.789,81.093
		C103.239,86.554,95.258,87,88.957,87H51V38h41.458c4.971,0,11.061,0.182,14.001,5.012c0.7,1.12,1.68,3.136,1.68,6.287
		c0,1.12-0.07,4.228-2.1,6.818c-1.12,1.4-3.36,3.27-7.351,4.25c3.08,0.49,5.88,0.97,8.331,3.07c2.94,2.45,3.641,5.434,3.641,9.074
		C110.66,74.05,110.589,77.663,107.789,81.093z"/>
</g>
<text transform="matrix(1 0 0 1 -356.625 42)" font-family="'AkzidenzGroteskBQ-BoldExt'" font-size="12">this is not right</text>
<text transform="matrix(1 0 0 1 -356.625 53.9375)" font-family="'AkzidenzGroteskBQ-Ext'" font-size="12">this is not right</text>
</svg>
