<?xml version="1.0" encoding="utf-8"?>
<!-- Generator: Adobe Illustrator 16.0.0, SVG Export Plug-In . SVG Version: 6.00 Build 0)  -->
<!DOCTYPE svg PUBLIC "-//W3C//DTD SVG 1.1//EN" "http://www.w3.org/Graphics/SVG/1.1/DTD/svg11.dtd">
<svg version="1.1" id="Layer_1" xmlns="http://www.w3.org/2000/svg" xmlns:xlink="http://www.w3.org/1999/xlink" x="0px" y="0px"
	 width="728.728px" height="87.584px" viewBox="0 0 728.728 87.584" enable-background="new 0 0 728.728 87.584"
	 xml:space="preserve">
<g>
	<path fill="#707070" d="M87.451,74.269c-7.257,11.006-21.167,11.127-32.658,11.127H0V0h54.793c2.178,0,4.233,0,6.411,0.121
		c7.741,0.484,15.845,2.298,21.046,8.467c3.267,3.992,4.597,8.588,4.597,13.548c0,9.555-5.201,14.151-8.467,15.966
		c-0.968,0.604-3.508,1.572-3.508,1.572c2.177,0.726,6.169,1.936,10.16,6.048c2.419,2.42,6.048,7.258,6.048,15.846
		C91.08,63.865,90.959,68.944,87.451,74.269z M68.582,12.459c-4.233-2.661-9.192-2.661-13.91-2.661H12.217v26.247H56.85
		c5.563,0,11.491-0.12,15.119-5.321c0.847-1.21,2.299-3.871,2.299-7.741C74.268,20.805,73.783,15.725,68.582,12.459z M75.961,52.133
		c-4.112-5.927-11.007-6.29-17.539-6.29H12.217v29.635h46.205c6.29,0,12.821-0.604,17.176-6.047
		c1.089-1.453,2.903-4.354,2.782-8.951C78.38,59.026,78.38,55.521,75.961,52.133z"/>
	<path fill="#707070" d="M164.979,85.396V55.156c0-3.87-0.121-7.499-1.572-11.007c-3.266-7.378-12.338-9.919-19.715-9.919
		c-2.42,0-10.039,0.242-16.693,4.597c-2.056,1.331-3.991,3.024-5.685,4.959c-0.968,1.21-1.572,2.057-2.419,3.387v38.223h-11.491V0
		h11.612v32.779c1.088-0.847,2.177-1.693,3.387-2.419c3.991-2.54,11.371-5.806,23.103-5.806c17.779,0,26.125,8.467,29.029,15.604
		c1.814,4.233,1.936,8.346,1.936,12.942v32.295H164.979L164.979,85.396z"/>
	<path fill="#707070" d="M258.476,86c-10.039,0-10.887-5.685-11.371-10.039c-0.361,0.604-1.33,2.177-2.781,3.508
		c-3.992,3.87-12.217,8.104-25.401,8.104c-3.629,0-7.258-0.483-8.346-0.604c-5.928-0.968-10.887-2.901-15-7.499
		c-3.023-3.508-4.596-7.619-4.596-12.217c0-10.16,7.258-14.516,10.402-15.845c5.686-2.541,14.877-2.661,28.787-2.782l16.813-0.121
		c0-5.201,0.242-10.281-5.201-13.185c-2.539-1.33-7.377-2.419-14.393-2.419c-5.564,0-13.547,0.483-18.266,4.233
		c-1.088,0.847-1.451,1.331-2.66,3.508l-11.611-1.089c0.121-0.483,1.209-3.628,2.66-5.806c1.09-1.572,3.266-4.233,7.621-6.048
		c3.871-1.572,11.248-3.145,21.65-3.145c1.693,0,10.04,0.121,16.813,1.814c1.574,0.362,7.742,1.693,11.25,6.41
		c2.902,3.871,2.902,7.862,2.902,12.338v21.529c0,3.75,0,6.049,0.484,7.621c0.605,1.813,2.057,3.508,6.168,3.508
		c1.09,0,2.057-0.121,4.234-0.363v7.982C265.249,85.638,261.862,86,258.476,86z M225.454,57.454c-8.951,0-14.273,0.242-18.023,2.057
		c-1.33,0.604-4.959,2.903-4.959,7.62c0,5.806,5.322,11.612,17.055,11.612c3.146,0,6.895-0.605,7.621-0.727
		c2.42-0.363,13.063-2.178,17.782-10.887c2.176-4.111,2.055-7.982,2.176-9.677L225.454,57.454L225.454,57.454z"/>
	<path fill="#707070" d="M342.655,75.719c-7.137,12.7-30.238,11.854-30.723,11.854c-3.992,0-26.609,0-40.279-12.338l9.92-6.531
		c0.604,0.484,3.387,2.661,6.047,4.113c9.314,4.838,20.926,5.08,23.707,5.08c0.242,0,10.887,0,16.33-2.903
		c2.539-1.33,4.717-3.629,4.717-6.652c0-1.571-0.604-3.87-3.75-5.442c-5.201-2.782-16.328-2.42-30.723-3.991
		c-5.08-0.604-10.766-1.572-15.119-4.718c-3.629-2.662-5.564-6.773-5.564-11.37c0-6.532,3.75-11.612,9.437-14.516
		c8.225-4.233,22.135-4.233,23.344-4.233c9.193,0,18.869,1.572,27.094,5.927c3.992,2.178,5.807,3.629,7.258,5.08l-10.039,5.564
		c-9.676-6.652-21.529-6.895-25.158-6.895c-8.346,0-13.547,1.21-16.693,3.508c-2.176,1.693-2.539,3.266-2.539,4.597
		c0,1.088,0.484,3.266,2.902,4.596c4.113,2.419,15.24,2.782,27.699,3.87c9.072,0.727,13.426,1.693,17.176,4.113
		c4.596,3.022,6.895,7.861,6.895,13.185C344.591,68.944,344.47,72.453,342.655,75.719z"/>
	<path fill="#707070" d="M418.492,85.396l-30.966-28.545L371.317,69.31v16.086h-11.732V0h11.732v56.972l37.136-30.603h17.781
		l-29.637,23.224l38.826,35.803H418.492z"/>
	<path fill="#707070" d="M505.576,86c-10.039,0-10.885-5.685-11.369-10.039c-0.363,0.604-1.33,2.177-2.783,3.508
		c-3.99,3.87-12.215,8.104-25.4,8.104c-3.629,0-7.258-0.483-8.346-0.604c-5.926-0.968-10.887-2.901-14.998-7.499
		c-3.023-3.508-4.596-7.619-4.596-12.217c0-10.16,7.256-14.516,10.4-15.845c5.686-2.541,14.879-2.661,28.789-2.782l16.813-0.121
		c0-5.201,0.242-10.281-5.201-13.185c-2.541-1.33-7.379-2.419-14.395-2.419c-5.564,0-13.547,0.483-18.266,4.233
		c-1.088,0.847-1.449,1.331-2.658,3.508l-11.613-1.089c0.121-0.483,1.211-3.628,2.662-5.806c1.088-1.572,3.266-4.233,7.619-6.048
		c3.871-1.572,11.25-3.145,21.65-3.145c1.693,0,10.039,0.121,16.814,1.814c1.572,0.362,7.74,1.693,11.248,6.41
		c2.902,3.871,2.902,7.862,2.902,12.338v21.529c0,3.75,0,6.049,0.482,7.621c0.605,1.813,2.057,3.508,6.17,3.508
		c1.088,0,2.057-0.121,4.232-0.363v7.982C512.349,85.638,508.962,86,505.576,86z M472.554,57.454
		c-8.949,0-14.271,0.242-18.021,2.057c-1.33,0.604-4.959,2.903-4.959,7.62c0,5.806,5.322,11.612,17.055,11.612
		c3.146,0,6.896-0.605,7.619-0.727c2.42-0.363,13.064-2.178,17.781-10.887c2.178-4.111,2.057-7.982,2.178-9.677L472.554,57.454
		L472.554,57.454z"/>
	<path fill="#707070" d="M557.945,35.562c-2.059,0-15.605-0.363-19.475,10.281c-0.848,2.54-0.969,4.959-0.969,7.62v31.933h-11.49
		V26.369h11.369l0.121,6.652c0.848-0.847,1.451-1.572,3.266-2.782c3.023-2.056,10.039-5.563,19.477-5.563
		c3.387,0,5.322,0.604,6.771,0.967v11.249C564.839,36.287,562.542,35.562,557.945,35.562z"/>
	<path fill="#707070" d="M639.224,86c-10.039,0-10.885-5.685-11.369-10.039c-0.363,0.604-1.33,2.177-2.783,3.508
		c-3.99,3.87-12.215,8.104-25.4,8.104c-3.629,0-7.258-0.483-8.346-0.604c-5.926-0.968-10.887-2.901-14.998-7.499
		c-3.023-3.508-4.596-7.619-4.596-12.217c0-10.16,7.256-14.516,10.4-15.845c5.686-2.541,14.879-2.661,28.789-2.782l16.813-0.121
		c0-5.201,0.242-10.281-5.201-13.185c-2.541-1.33-7.379-2.419-14.395-2.419c-5.563,0-13.547,0.483-18.264,4.233
		c-1.088,0.847-1.451,1.331-2.66,3.508l-11.613-1.089c0.121-0.483,1.211-3.628,2.662-5.806c1.088-1.572,3.266-4.233,7.619-6.048
		c3.871-1.572,11.25-3.145,21.652-3.145c1.691,0,10.039,0.121,16.813,1.814c1.572,0.362,7.74,1.693,11.248,6.41
		c2.904,3.871,2.904,7.862,2.904,12.338v21.529c0,3.75,0,6.049,0.482,7.621c0.604,1.813,2.057,3.508,6.17,3.508
		c1.088,0,2.057-0.121,4.23-0.363v7.982C645.998,85.638,642.611,86,639.224,86z M606.203,57.454c-8.949,0-14.271,0.242-18.021,2.057
		c-1.33,0.604-4.959,2.903-4.959,7.62c0,5.806,5.322,11.612,17.055,11.612c3.145,0,6.895-0.605,7.619-0.727
		c2.42-0.363,13.064-2.178,17.781-10.887c2.178-4.111,2.057-7.982,2.178-9.677L606.203,57.454L606.203,57.454z"/>
	<path fill="#707070" d="M717.359,85.396V54.188c0-5.08-0.484-7.258-1.572-9.676c-2.178-5.082-8.229-10.041-20.322-10.041
		c-5.805,0-9.07,1.089-11.49,1.936c-1.814,0.726-8.588,3.145-11.369,10.522c-1.33,3.387-1.451,6.773-1.451,10.402v28.063h-11.492
		V26.369h11.492v7.136c2.055-1.693,4.232-3.749,8.949-5.685c3.508-1.451,9.193-3.145,17.418-3.145
		c14.637,0,25.4,5.927,29.271,14.756c1.936,4.597,1.936,9.193,1.936,14.031v31.934H717.359L717.359,85.396z"/>
</g>
</svg>
