<?xml version="1.0" encoding="utf-8"?>
<!-- Generator: Adobe Illustrator 16.0.0, SVG Export Plug-In . SVG Version: 6.00 Build 0)  -->
<!DOCTYPE svg PUBLIC "-//W3C//DTD SVG 1.1//EN" "http://www.w3.org/Graphics/SVG/1.1/DTD/svg11.dtd">
<svg fill="#8378ff" version="1.1" id="Layer_1" xmlns="http://www.w3.org/2000/svg" xmlns:xlink="http://www.w3.org/1999/xlink" x="0px" y="0px"
	 width="442.923px" height="87.584px" viewBox="0 0 442.923 87.584" enable-background="new 0 0 442.923 87.584"
	 xml:space="preserve">
<path d="M69.792,69.813C64.47,82.271,48.866,86.868,36.771,86.868c-2.419,0-6.411-0.121-12.096-1.331
	C7.137,81.788,2.54,70.176,0,63.645l12.337-2.299c0.847,1.814,3.508,7.741,8.709,11.128c5.685,3.629,12.701,3.629,14.636,3.629
	c2.177,0,10.765-0.121,16.813-3.87c0.847-0.605,3.75-2.661,5.443-6.169c1.21-2.661,1.693-4.959,1.693-10.645V-0.584h12.096v56.366
	C71.727,57.476,72.09,64.249,69.792,69.813z"/>
<path d="M91.439,15.866V4.255h11.37v11.611H91.439z M91.56,84.812V25.785h11.491v59.026H91.56z"/>
<path d="M179.615,84.812V53.604c0-5.08-0.484-7.257-1.572-9.676c-2.177-5.081-8.225-10.04-20.321-10.04
	c-5.806,0-9.072,1.089-11.491,1.936c-1.814,0.726-8.588,3.145-11.37,10.523c-1.331,3.387-1.452,6.773-1.452,10.402v28.062h-11.491
	V25.785h11.491v7.136c2.057-1.693,4.233-3.749,8.951-5.685c3.507-1.451,9.192-3.145,17.417-3.145
	c14.636,0,25.401,5.927,29.271,14.756c1.935,4.597,1.935,9.193,1.935,14.031v31.933H179.615z"/>
<path d="M217.832,56.629c0.847,5.685,1.936,9.556,6.169,13.547c2.903,2.782,9.435,7.258,19.716,7.258
	c7.016,0,14.031-2.178,18.869-7.379c1.693-1.814,2.419-3.266,3.629-5.443l11.007,3.024c-0.847,1.814-1.814,3.629-3.024,5.322
	c-3.75,5.442-9.797,8.588-11.612,9.435c-3.266,1.572-10.644,4.233-20.441,4.233c-19.111,0-36.045-10.645-36.166-31.812
	c0-1.814,0.242-6.169,2.056-11.007c5.927-15.604,21.651-18.628,26.489-19.354c1.331-0.242,3.992-0.604,7.378-0.604
	c5.08,0,19.837,0.726,29.634,13.185c1.814,2.298,5.685,7.378,6.653,15.119c0.242,1.572,0.242,3.023,0.242,4.476H217.832z
	 M256.78,36.308c-0.968-0.604-3.145-1.935-6.29-2.902c-1.572-0.484-3.992-0.968-7.862-0.968c-8.951,0-17.176,3.266-22.135,11.128
	c-0.968,1.451-1.209,1.814-2.298,4.476h47.294C262.949,41.025,259.683,38.243,256.78,36.308z"/>
<path d="M357.048,75.135c-7.137,12.7-30.239,11.854-30.723,11.854c-3.992,0-26.61,0-40.279-12.337l9.919-6.532
	c0.604,0.484,3.387,2.661,6.048,4.113c9.313,4.838,20.926,5.08,23.707,5.08c0.242,0,10.887,0,16.329-2.903
	c2.54-1.33,4.718-3.629,4.718-6.652c0-1.572-0.604-3.871-3.75-5.443c-5.201-2.782-16.329-2.419-30.723-3.991
	c-5.08-0.604-10.766-1.572-15.119-4.718c-3.629-2.661-5.564-6.773-5.564-11.369c0-6.532,3.75-11.612,9.435-14.516
	c8.225-4.233,22.135-4.233,23.345-4.233c9.192,0,18.869,1.572,27.094,5.927c3.992,2.178,5.807,3.629,7.258,5.08l-10.039,5.564
	c-9.677-6.652-21.53-6.895-25.159-6.895c-8.346,0-13.547,1.21-16.692,3.508c-2.177,1.693-2.54,3.266-2.54,4.597
	c0,1.088,0.484,3.266,2.903,4.596c4.112,2.419,15.24,2.782,27.699,3.871c9.071,0.726,13.426,1.693,17.176,4.112
	c4.596,3.023,6.895,7.862,6.895,13.185C358.983,68.361,358.862,71.869,357.048,75.135z"/>
<path d="M431.432,84.812V54.572c0-3.87-0.121-7.499-1.572-11.007c-3.266-7.378-12.338-9.919-19.716-9.919
	c-2.419,0-10.039,0.242-16.692,4.597c-2.056,1.331-3.991,3.024-5.685,4.959c-0.968,1.21-1.572,2.057-2.419,3.387v38.223h-11.491
	V-0.584h11.612v32.779c1.088-0.847,2.177-1.693,3.387-2.419c3.991-2.54,11.37-5.806,23.103-5.806
	c17.78,0,26.126,8.467,29.029,15.604c1.814,4.233,1.936,8.346,1.936,12.942v32.295H431.432z"/>
</svg>
